# xmcd CD database file
#
# Track frame offsets:
#	150
#	23043
#	51159
#	84897
#	106897
#	125725
#	154079
#	175911
#	195258
#	228669
#	253344
#
# Disc length: 3784 seconds
#
# Revision: 0
# Processed by: cddbd v1.5.2PL0 Copyright (c) Steve Scherf et al.
# Submitted via: CDex 1.75
#
DISCID=890ec60b
DTITLE=Stanton Moore - Conversations
DYEAR=2002
DGENRE=Jazz
TTITLE0=Lauren Z
TTITLE1=Carnival
TTITLE2=Driftin'
TTITLE3=Magnolia Triangle
TTITLE4=Waltz for All Souls
TTITLE5=Tchefunkta
TTITLE6=The Chase
TTITLE7=Big Greaze
TTITLE8=In The Keyhole
TTITLE9=Parparin's Second Line
TTITLE10=Prayer
EXTD=YEAR: 2002
EXTT0=
EXTT1=
EXTT2=
EXTT3=
EXTT4=
EXTT5=
EXTT6=
EXTT7=
EXTT8=
EXTT9=
EXTT10=
PLAYORDER=
